<svg width="30" height="20" viewBox="0 0 30 20" fill="none" xmlns="http://www.w3.org/2000/svg">
<g id="&#229;&#136;&#160;&#233;&#153;&#164;">
<path id="Rectangle 17893" d="M0 0H22C26.4183 0 30 3.58172 30 8V20H8C3.58172 20 0 16.4183 0 12V0Z" fill="black" fill-opacity="0.3"/>
<path id="Vector" d="M21.5227 5.54545H18.5V4.43182C18.5 3.63636 17.8636 3 17.0682 3H12.9318C12.1364 3 11.5 3.63636 11.5 4.43182V5.54545H8.47727C8.22273 5.54545 8 5.76818 8 6.02273C8 6.27727 8.22273 6.5 8.47727 6.5H21.5227C21.7773 6.5 22 6.27727 22 6.02273C22 5.76818 21.7773 5.54545 21.5227 5.54545ZM12.4545 5.54545V4.43182C12.4545 4.17727 12.6773 3.95455 12.9318 3.95455H17.0682C17.3227 3.95455 17.5455 4.17727 17.5455 4.43182V5.54545H12.4545ZM19.9 7.45455C19.6455 7.45455 19.4227 7.67727 19.4227 7.93182V15.1545C19.4227 15.6318 19.0409 16.0455 18.5318 16.0455H11.4364C10.9591 16.0455 10.5455 15.6636 10.5455 15.1545V7.93182C10.5455 7.67727 10.3227 7.45455 10.0682 7.45455C9.81364 7.45455 9.59091 7.67727 9.59091 7.93182V15.1545C9.59091 16.1727 10.4182 17 11.4364 17H18.5636C19.5818 17 20.4091 16.1727 20.4091 15.1545V7.93182C20.3773 7.67727 20.1545 7.45455 19.9 7.45455Z" fill="white"/>
<path id="Vector_2" d="M13.8333 14.5625V8.4375C13.8333 8.20417 13.6389 8 13.4167 8C13.1944 8 13 8.20417 13 8.4375V14.5625C13 14.7958 13.1944 15 13.4167 15C13.6389 15 13.8333 14.7958 13.8333 14.5625ZM17 14.5625V8.4375C17 8.20417 16.8056 8 16.5833 8C16.3611 8 16.1667 8.20417 16.1667 8.4375V14.5625C16.1667 14.7958 16.3611 15 16.5833 15C16.8056 15 17 14.7958 17 14.5625Z" fill="white"/>
</g>
</svg>
