<svg width="131" height="25" viewBox="0 0 131 25" fill="none" xmlns="http://www.w3.org/2000/svg">
<g id="Group 277">
<path id="Discoveries" d="M4.96293 4.632H9.51693C14.5109 4.632 17.3269 7.206 15.8529 13.102C14.4889 18.602 10.7489 21 5.97493 21H0.89293L4.96293 4.632ZM5.99693 17.832C8.63693 17.832 10.9909 16.446 12.0029 12.354C12.9489 8.658 11.4529 7.756 8.81293 7.756H8.13093L5.62293 17.832H5.99693ZM22.4203 6.744C20.9463 6.744 20.1323 5.732 20.4623 4.368C20.7043 3.378 21.6503 2.718 22.8163 2.718C24.2683 2.718 25.0823 3.73 24.7523 5.116C24.5103 6.084 23.5643 6.744 22.4203 6.744ZM19.7143 8.482H23.6083L20.5063 21H16.6123L19.7143 8.482ZM27.6406 21.308C25.8586 21.308 24.0986 20.494 23.0426 19.438L25.1546 17.216C26.0786 18.096 27.0026 18.426 27.8386 18.426C29.0266 18.426 29.7526 17.876 29.9506 17.062C30.1046 16.512 29.0926 16.248 28.0806 15.676C26.5846 15.17 24.9566 14.048 25.5286 11.782C26.0786 9.604 28.2126 8.174 30.9626 8.174C33.0966 8.174 34.3066 9.076 35.2746 9.89L33.1626 12.002C32.4366 11.386 31.6666 11.056 30.9846 11.056C29.9506 11.056 29.2466 11.54 29.0486 12.332C28.9166 12.882 29.8626 13.058 30.8966 13.586C32.4586 14.114 34.0866 15.126 33.4706 17.59C32.9426 19.702 30.8966 21.308 27.6406 21.308ZM40.6375 21.308C36.9635 21.308 34.7635 18.712 35.8415 14.378C36.8315 10.418 40.3075 8.174 43.6515 8.174C45.3235 8.174 46.3795 8.812 47.1935 9.626L44.9715 11.914C44.5095 11.43 44.0915 11.342 43.6955 11.342C41.8255 11.342 40.2195 12.838 39.6475 15.126C39.1855 16.996 39.8675 18.14 41.2535 18.14C42.1995 18.14 43.1015 17.656 43.8275 17.15L44.9055 19.944C43.4095 21.022 41.8035 21.308 40.6375 21.308ZM51.6354 21.308C48.2914 21.308 45.8494 18.712 46.9274 14.378C47.9174 10.418 51.2614 8.174 54.2974 8.174C57.6194 8.174 60.0614 10.77 58.9834 15.126C57.9934 19.064 54.6494 21.308 51.6354 21.308ZM51.8114 18.14C53.4174 18.14 54.6054 16.644 55.1774 14.378C55.6394 12.486 55.4194 11.342 54.1214 11.342C52.4934 11.342 51.3054 12.838 50.7334 15.126C50.2714 16.996 50.4914 18.14 51.8114 18.14ZM61.6229 8.482H65.4949L65.5169 14.422C65.5389 15.654 65.5169 16.952 65.4729 18.272L65.7149 17.92C66.3309 16.6 66.9909 15.302 67.5629 14.07L70.5329 8.482H74.3609L67.2109 21H62.6789L61.6229 8.482ZM78.7539 21.308C75.0139 21.308 72.7479 18.712 73.8259 14.378C74.7939 10.506 78.1159 8.174 80.9979 8.174C84.7599 8.174 85.9699 10.968 85.0679 14.598C84.9579 15.082 84.7379 15.786 84.5839 16.072H77.1479C77.0819 17.788 78.0059 18.316 79.4359 18.316C80.4919 18.316 81.4379 17.964 82.4279 17.436L83.3959 19.988C81.8559 20.912 80.0739 21.308 78.7539 21.308ZM82.0979 13.168C82.4279 11.914 82.2079 11.166 80.9319 11.166C79.6999 11.166 78.4239 12.024 77.7859 13.52L82.0979 13.168ZM89.0873 8.482H92.2773L91.9693 10.66L92.0573 10.506C93.3993 8.834 94.8733 8.174 95.9733 8.174C96.8753 8.174 97.2713 8.35 97.6013 8.504L96.3913 11.76C95.9733 11.65 95.6213 11.606 95.2253 11.606C94.1473 11.606 92.7393 12.376 91.6613 14.026L89.8793 21H85.9853L89.0873 8.482ZM101.998 6.744C100.524 6.744 99.7104 5.732 100.04 4.368C100.282 3.378 101.228 2.718 102.394 2.718C103.846 2.718 104.66 3.73 104.33 5.116C104.088 6.084 103.142 6.744 101.998 6.744ZM99.2924 8.482H103.186L100.084 21H96.1904L99.2924 8.482ZM109.133 21.308C105.393 21.308 103.127 18.712 104.205 14.378C105.173 10.506 108.495 8.174 111.377 8.174C115.139 8.174 116.349 10.968 115.447 14.598C115.337 15.082 115.117 15.786 114.963 16.072H107.527C107.461 17.788 108.385 18.316 109.815 18.316C110.871 18.316 111.817 17.964 112.807 17.436L113.775 19.988C112.235 20.912 110.453 21.308 109.133 21.308ZM112.477 13.168C112.807 11.914 112.587 11.166 111.311 11.166C110.079 11.166 108.803 12.024 108.165 13.52L112.477 13.168ZM120.324 21.308C118.542 21.308 116.782 20.494 115.726 19.438L117.838 17.216C118.762 18.096 119.686 18.426 120.522 18.426C121.71 18.426 122.436 17.876 122.634 17.062C122.788 16.512 121.776 16.248 120.764 15.676C119.268 15.17 117.64 14.048 118.212 11.782C118.762 9.604 120.896 8.174 123.646 8.174C125.78 8.174 126.99 9.076 127.958 9.89L125.846 12.002C125.12 11.386 124.35 11.056 123.668 11.056C122.634 11.056 121.93 11.54 121.732 12.332C121.6 12.882 122.546 13.058 123.58 13.586C125.142 14.114 126.77 15.126 126.154 17.59C125.626 19.702 123.58 21.308 120.324 21.308Z" fill="white"/>
</g>
</svg>
