<svg width="16" height="16" viewBox="0 0 16 16" fill="none" xmlns="http://www.w3.org/2000/svg">
<g id="Group 139">
<circle id="Ellipse 1586" cx="6.85707" cy="8.00014" r="4.57143" fill="white"/>
<path id="Vector" d="M3.4285 2.28613C3.27842 2.28613 3.12981 2.31898 2.99115 2.38279C2.85249 2.44661 2.7265 2.54015 2.62038 2.65806C2.51426 2.77598 2.43007 2.91596 2.37264 3.07003C2.31521 3.22409 2.28564 3.38922 2.28564 3.55597V12.4449C2.28564 12.6116 2.31521 12.7767 2.37264 12.9308C2.43007 13.0849 2.51426 13.2249 2.62038 13.3428C2.7265 13.4607 2.85249 13.5542 2.99115 13.618C3.12981 13.6819 3.27842 13.7147 3.4285 13.7147H12.5714C12.7214 13.7147 12.8701 13.6819 13.0087 13.618C13.1474 13.5542 13.2734 13.4607 13.3795 13.3428C13.4856 13.2249 13.5698 13.0849 13.6272 12.9308C13.6847 12.7767 13.7142 12.6116 13.7142 12.4449V3.55597C13.7142 3.38922 13.6847 3.22409 13.6272 3.07003C13.5698 2.91596 13.4856 2.77598 13.3795 2.65806C13.2734 2.54015 13.1474 2.44661 13.0087 2.38279C12.8701 2.31898 12.7214 2.28613 12.5714 2.28613H3.4285ZM6.4845 9.2747C6.81705 9.6196 7.23529 9.83989 7.68065 9.9101C7.85576 9.9377 7.99993 9.79112 7.99993 9.61385V9.61385C7.99993 9.32314 8.3547 9.18126 8.55516 9.39179L9.03458 9.89528C9.2552 10.127 9.25524 10.491 9.03467 10.7228L8.55357 11.2283C8.35371 11.4382 7.99993 11.2968 7.99993 11.0069V11.0069C7.99993 10.829 7.85468 10.6869 7.67794 10.6662C7.04558 10.5921 6.44856 10.2918 5.97936 9.8055C5.71697 9.53383 5.50739 9.20538 5.36352 8.84035C5.21965 8.47533 5.14453 8.08145 5.14279 7.68296C5.14341 7.28092 5.22036 6.88551 5.36668 6.52184C5.45881 6.29283 5.75285 6.26046 5.92308 6.43924V6.43924C6.0331 6.55478 6.05511 6.72631 5.99983 6.87598C5.90555 7.13122 5.85675 7.40532 5.85707 7.68296C5.85707 8.27978 6.08279 8.85248 6.4845 9.2747ZM7.44629 4.13766C7.64615 3.92768 7.99993 4.06913 7.99993 4.35901V4.35901C7.99993 4.53696 8.14518 4.67898 8.32192 4.69969C8.95428 4.77381 9.5513 5.07412 10.0205 5.56042C10.2829 5.83208 10.4925 6.16054 10.6363 6.52556C10.7802 6.89059 10.8553 7.28447 10.8571 7.68296C10.8564 8.08525 10.7794 8.4809 10.6329 8.84476C10.5408 9.07345 10.2472 9.10585 10.0771 8.9274V8.9274C9.96665 8.81153 9.94489 8.63927 10.0003 8.4891C10.0929 8.23829 10.1428 7.96364 10.1428 7.68296C10.1415 7.38412 10.0851 7.08874 9.97721 6.815C9.86931 6.54126 9.71213 6.29494 9.51536 6.09121C9.18269 5.74645 8.76436 5.52633 8.31897 5.45632C8.14397 5.42881 7.99993 5.57531 7.99993 5.75245V5.75245C7.99993 6.04302 7.64533 6.18484 7.44496 5.9744L6.96528 5.47063C6.74466 5.23893 6.74462 4.87489 6.9652 4.64314L7.44629 4.13766Z" fill="#202020"/>
</g>
</svg>
