<svg width="32" height="32" viewBox="0 0 32 32" fill="none" xmlns="http://www.w3.org/2000/svg">
<g id="&#232;&#175;&#173;&#233;&#159;&#179;&#230;&#160;&#143;">
<rect id="Rectangle 129" width="32" height="32" rx="4" fill="white"/>
<g id="Group 267">
<g id="Frame">
<path id="Vector" d="M16.2836 20.0387H16.7359C19.3609 20.0387 21.4961 17.9035 21.4961 15.2785V10.6801C21.4961 8.05508 19.3609 5.91992 16.7359 5.91992H16.2836C13.6586 5.91992 11.5234 8.05508 11.5234 10.6801V15.2762C11.5234 17.9012 13.6586 20.0387 16.2836 20.0387ZM13.1641 10.6801C13.1641 8.95977 14.5633 7.56055 16.2836 7.56055H16.7359C18.4563 7.56055 19.8555 8.95977 19.8555 10.6801V15.2762C19.8555 16.9965 18.4563 18.3957 16.7359 18.3957H16.2836C14.5633 18.3957 13.1641 16.9965 13.1641 15.2762V10.6801Z" fill="#565656"/>
<path id="Vector_2" d="M22.5837 15.5645V15.691C22.5837 18.7777 20.0829 21.2785 16.9962 21.2785H16.0235C12.9368 21.2785 10.436 18.7777 10.436 15.691V15.5645C10.436 15.1121 10.0681 14.7441 9.61572 14.7441C9.16338 14.7441 8.79541 15.1121 8.79541 15.5645V15.691C8.79541 19.5652 11.8587 22.7363 15.6907 22.9121V24.4402H13.0306C12.6579 24.4402 12.3087 24.677 12.2103 25.0379C12.0649 25.584 12.4774 26.0809 13.0001 26.0809H19.9892C20.3618 26.0809 20.711 25.8441 20.8095 25.4832C20.9548 24.9371 20.5423 24.4402 20.0196 24.4402H17.3313V22.9121C21.1634 22.7363 24.2267 19.5652 24.2267 15.691V15.5645C24.2267 15.1121 23.8587 14.7441 23.4063 14.7441C22.9517 14.7441 22.5837 15.1121 22.5837 15.5645Z" fill="#565656"/>
<path id="Vector_3" d="M15.0718 14.1906C15.0718 14.5717 15.2231 14.9371 15.4926 15.2065C15.762 15.476 16.1275 15.6273 16.5085 15.6273C16.8895 15.6273 17.255 15.476 17.5244 15.2065C17.7938 14.9371 17.9452 14.5717 17.9452 14.1906C17.9452 13.8096 17.7938 13.4441 17.5244 13.1747C17.255 12.9053 16.8895 12.7539 16.5085 12.7539C16.1275 12.7539 15.762 12.9053 15.4926 13.1747C15.2231 13.4441 15.0718 13.8096 15.0718 14.1906Z" fill="#FFE34E"/>
</g>
</g>
</g>
</svg>
