<svg width="32" height="32" viewBox="0 0 32 32" fill="none" xmlns="http://www.w3.org/2000/svg">
<g id="&#232;&#161;&#168;&#230;&#131;&#133;">
<rect id="Rectangle 129" width="32" height="32" rx="4" fill="white"/>
<path id="Vector" d="M16 6C21.5227 6 26 10.4773 26 16C26 21.5227 21.5227 26 16 26C10.4773 26 6 21.5227 6 16C6 10.4773 10.4773 6 16 6ZM16 7.36364C13.7095 7.36364 11.5128 8.27354 9.89317 9.89317C8.27354 11.5128 7.36364 13.7095 7.36364 16C7.36364 18.2905 8.27354 20.4872 9.89317 22.1068C11.5128 23.7265 13.7095 24.6364 16 24.6364C18.2905 24.6364 20.4872 23.7265 22.1068 22.1068C23.7265 20.4872 24.6364 18.2905 24.6364 16C24.6364 13.7095 23.7265 11.5128 22.1068 9.89317C20.4872 8.27354 18.2905 7.36364 16 7.36364ZM19.86 19.8573L20.8236 20.8209C19.545 22.0994 17.8109 22.8176 16.0027 22.8176C14.1946 22.8176 12.4605 22.0994 11.1818 20.8209L12.1455 19.8573C12.652 20.3639 13.2533 20.7657 13.9151 21.0399C14.577 21.3141 15.2863 21.4552 16.0027 21.4552C16.7191 21.4552 17.4285 21.3141 18.0903 21.0399C18.7521 20.7657 19.3535 20.3639 19.86 19.8573ZM19.9345 11.1564L20.8991 12.12L19.2918 13.7273L20.8991 15.3345L19.9355 16.2982L17.3636 13.7273L19.9345 11.1564ZM12.8182 11.4545V16H11.4545V11.4545H12.8182Z" fill="#565656"/>
</g>
</svg>
