<svg width="62" height="62" viewBox="0 0 62 62" fill="none" xmlns="http://www.w3.org/2000/svg">
<g id="Group 237">
<path id="&#230;&#164;&#173;&#229;&#156;&#134;&#229;&#189;&#162;" d="M31 62C48.1208 62 62 48.1208 62 31C62 13.8792 48.1208 0 31 0C13.8792 0 0 13.8792 0 31C0 48.1208 13.8792 62 31 62Z" fill="url(#paint0_linear_54_3324)"/>
<path id="Vector" d="M41 29.7284V29.7102C41 28.9299 40.3837 28.2954 39.6336 28.2954C38.8799 28.2954 38.2812 28.9299 38.2812 29.7102C38.2812 33.8852 35.0201 37.2763 31.0018 37.2763C26.9834 37.2763 23.7223 33.8852 23.7223 29.7102C23.7223 28.9299 23.1236 28.2954 22.37 28.2954C21.6163 28.2954 21 28.9299 21 29.7102V29.7284C21 34.9864 24.7542 39.3183 29.6318 40.0038V42.1668H25.0923C24.3386 42.1668 23.7223 42.8013 23.7223 43.5816C23.7223 44.3655 24.3351 45 25.0923 45H36.9077C37.6649 44.9964 38.2777 44.3655 38.2777 43.5816C38.2777 42.8013 37.6614 42.1668 36.9077 42.1668H32.3717V40.0038C37.2493 39.3183 41 34.9864 41 29.7284ZM31.0018 34.9062C34.0164 34.9062 36.464 32.372 36.464 29.2362V21.67C36.464 18.5451 34.0199 16 31.0018 16C27.9871 16 25.5431 18.5488 25.5431 21.67V29.2362C25.5431 32.372 27.9871 34.9062 31.0018 34.9062Z" fill="#404040"/>
</g>
<defs>
<linearGradient id="paint0_linear_54_3324" x1="31" y1="0" x2="31" y2="62" gradientUnits="userSpaceOnUse">
<stop stop-color="#E6FF4E"/>
<stop offset="1" stop-color="#FCFD55"/>
</linearGradient>
</defs>
</svg>
